<mxfile host="app.diagrams.net" agent="Mozilla/5.0 (Windows NT 10.0; Win64; x64) AppleWebKit/537.36 (KHTML, like Gecko) Chrome/139.0.0.0 Safari/537.36 Edg/139.0.0.0" version="28.0.9">
  <diagram name="Página-1" id="IUQOd4uB7t-FdMZn6lnh">
    <mxGraphModel dx="2895" dy="3478" grid="1" gridSize="10" guides="1" tooltips="1" connect="1" arrows="1" fold="1" page="1" pageScale="1" pageWidth="827" pageHeight="1169" math="0" shadow="0">
      <root>
        <mxCell id="0" />
        <mxCell id="1" parent="0" />
        <mxCell id="QP0DH9ULQLlSwC6DKwrH-1" value="Text" style="text;strokeColor=none;fillColor=none;html=1;align=center;verticalAlign=middle;whiteSpace=wrap;rounded=0;fontSize=16;" vertex="1" parent="1">
          <mxGeometry x="340" y="-30" width="60" height="30" as="geometry" />
        </mxCell>
        <mxCell id="QP0DH9ULQLlSwC6DKwrH-49" style="edgeStyle=orthogonalEdgeStyle;rounded=0;orthogonalLoop=1;jettySize=auto;html=1;exitX=0.25;exitY=0;exitDx=0;exitDy=0;" edge="1" parent="1" source="QP0DH9ULQLlSwC6DKwrH-4">
          <mxGeometry relative="1" as="geometry">
            <mxPoint x="-319" y="-820" as="targetPoint" />
          </mxGeometry>
        </mxCell>
        <mxCell id="QP0DH9ULQLlSwC6DKwrH-4" value="HISTORIAL RESERVA" style="rounded=1;whiteSpace=wrap;html=1;" vertex="1" parent="1">
          <mxGeometry x="-350" y="-810" width="120" height="40" as="geometry" />
        </mxCell>
        <mxCell id="QP0DH9ULQLlSwC6DKwrH-6" value="USUARIO" style="rounded=1;whiteSpace=wrap;html=1;" vertex="1" parent="1">
          <mxGeometry x="50" y="-810" width="120" height="40" as="geometry" />
        </mxCell>
        <mxCell id="QP0DH9ULQLlSwC6DKwrH-7" value="NOTIFICACION" style="rounded=1;whiteSpace=wrap;html=1;" vertex="1" parent="1">
          <mxGeometry x="250" y="-900" width="120" height="50" as="geometry" />
        </mxCell>
        <mxCell id="QP0DH9ULQLlSwC6DKwrH-8" value="RESERVA" style="rounded=1;whiteSpace=wrap;html=1;" vertex="1" parent="1">
          <mxGeometry x="240" y="-650" width="130" height="50" as="geometry" />
        </mxCell>
        <mxCell id="QP0DH9ULQLlSwC6DKwrH-9" value="RESEÑA" style="rounded=1;whiteSpace=wrap;html=1;" vertex="1" parent="1">
          <mxGeometry x="250" y="-1090" width="120" height="50" as="geometry" />
        </mxCell>
        <mxCell id="QP0DH9ULQLlSwC6DKwrH-10" value="CELDAS" style="rounded=1;whiteSpace=wrap;html=1;" vertex="1" parent="1">
          <mxGeometry x="530" y="-920" width="120" height="50" as="geometry" />
        </mxCell>
        <mxCell id="QP0DH9ULQLlSwC6DKwrH-11" value="PARQUEADERO" style="rounded=1;whiteSpace=wrap;html=1;" vertex="1" parent="1">
          <mxGeometry x="780" y="-1190" width="120" height="50" as="geometry" />
        </mxCell>
        <mxCell id="QP0DH9ULQLlSwC6DKwrH-12" value="VEHICULO" style="rounded=1;whiteSpace=wrap;html=1;" vertex="1" parent="1">
          <mxGeometry x="530" y="-790" width="120" height="50" as="geometry" />
        </mxCell>
        <mxCell id="QP0DH9ULQLlSwC6DKwrH-13" value="FACTURA" style="rounded=1;whiteSpace=wrap;html=1;" vertex="1" parent="1">
          <mxGeometry x="520" y="-680" width="120" height="50" as="geometry" />
        </mxCell>
        <mxCell id="QP0DH9ULQLlSwC6DKwrH-14" value="PAGO" style="rounded=1;whiteSpace=wrap;html=1;" vertex="1" parent="1">
          <mxGeometry x="520" y="-560" width="120" height="50" as="geometry" />
        </mxCell>
        <mxCell id="QP0DH9ULQLlSwC6DKwrH-15" value="TARIFA" style="rounded=1;whiteSpace=wrap;html=1;" vertex="1" parent="1">
          <mxGeometry x="520" y="-420" width="120" height="50" as="geometry" />
        </mxCell>
        <mxCell id="QP0DH9ULQLlSwC6DKwrH-16" value="TIPO DE CELDA" style="rounded=1;whiteSpace=wrap;html=1;" vertex="1" parent="1">
          <mxGeometry x="780" y="-1050" width="120" height="50" as="geometry" />
        </mxCell>
        <mxCell id="QP0DH9ULQLlSwC6DKwrH-17" value="HORARIO DISPONIBILIDAD" style="rounded=1;whiteSpace=wrap;html=1;" vertex="1" parent="1">
          <mxGeometry x="780" y="-910" width="120" height="50" as="geometry" />
        </mxCell>
        <mxCell id="QP0DH9ULQLlSwC6DKwrH-18" value="TIPO VEHICULO" style="rounded=1;whiteSpace=wrap;html=1;" vertex="1" parent="1">
          <mxGeometry x="780" y="-790" width="120" height="46" as="geometry" />
        </mxCell>
        <mxCell id="QP0DH9ULQLlSwC6DKwrH-19" value="METODO DE PAGO" style="rounded=1;whiteSpace=wrap;html=1;" vertex="1" parent="1">
          <mxGeometry x="780" y="-560" width="120" height="46" as="geometry" />
        </mxCell>
        <mxCell id="QP0DH9ULQLlSwC6DKwrH-22" value="CIUDAD" style="rounded=1;whiteSpace=wrap;html=1;" vertex="1" parent="1">
          <mxGeometry x="1080" y="-1340" width="120" height="50" as="geometry" />
        </mxCell>
        <mxCell id="QP0DH9ULQLlSwC6DKwrH-23" value="ADMINISTRADOR DE PARQUEADERO" style="rounded=1;whiteSpace=wrap;html=1;" vertex="1" parent="1">
          <mxGeometry x="1080" y="-1230" width="120" height="50" as="geometry" />
        </mxCell>
        <mxCell id="QP0DH9ULQLlSwC6DKwrH-24" value="" style="endArrow=classic;html=1;rounded=0;exitX=1;exitY=1;exitDx=0;exitDy=0;entryX=0;entryY=0.5;entryDx=0;entryDy=0;" edge="1" parent="1" source="QP0DH9ULQLlSwC6DKwrH-4" target="QP0DH9ULQLlSwC6DKwrH-8">
          <mxGeometry width="50" height="50" relative="1" as="geometry">
            <mxPoint x="330" y="-830" as="sourcePoint" />
            <mxPoint x="380" y="-880" as="targetPoint" />
          </mxGeometry>
        </mxCell>
        <mxCell id="QP0DH9ULQLlSwC6DKwrH-25" value="" style="endArrow=classic;html=1;rounded=0;exitX=1;exitY=0.5;exitDx=0;exitDy=0;entryX=0;entryY=0.5;entryDx=0;entryDy=0;" edge="1" parent="1" source="QP0DH9ULQLlSwC6DKwrH-4" target="QP0DH9ULQLlSwC6DKwrH-6">
          <mxGeometry width="50" height="50" relative="1" as="geometry">
            <mxPoint x="330" y="-830" as="sourcePoint" />
            <mxPoint x="380" y="-880" as="targetPoint" />
          </mxGeometry>
        </mxCell>
        <mxCell id="QP0DH9ULQLlSwC6DKwrH-26" value="" style="endArrow=classic;html=1;rounded=0;exitX=0.422;exitY=-0.045;exitDx=0;exitDy=0;exitPerimeter=0;entryX=0;entryY=0.75;entryDx=0;entryDy=0;" edge="1" parent="1" source="QP0DH9ULQLlSwC6DKwrH-6" target="QP0DH9ULQLlSwC6DKwrH-9">
          <mxGeometry width="50" height="50" relative="1" as="geometry">
            <mxPoint x="330" y="-830" as="sourcePoint" />
            <mxPoint x="380" y="-880" as="targetPoint" />
          </mxGeometry>
        </mxCell>
        <mxCell id="QP0DH9ULQLlSwC6DKwrH-27" value="" style="endArrow=classic;html=1;rounded=0;exitX=1;exitY=0.5;exitDx=0;exitDy=0;entryX=0;entryY=0.5;entryDx=0;entryDy=0;" edge="1" parent="1" source="QP0DH9ULQLlSwC6DKwrH-6" target="QP0DH9ULQLlSwC6DKwrH-7">
          <mxGeometry width="50" height="50" relative="1" as="geometry">
            <mxPoint x="330" y="-830" as="sourcePoint" />
            <mxPoint x="380" y="-880" as="targetPoint" />
          </mxGeometry>
        </mxCell>
        <mxCell id="QP0DH9ULQLlSwC6DKwrH-28" value="" style="endArrow=classic;html=1;rounded=0;exitX=1;exitY=1;exitDx=0;exitDy=0;entryX=0;entryY=0;entryDx=0;entryDy=0;" edge="1" parent="1" source="QP0DH9ULQLlSwC6DKwrH-6" target="QP0DH9ULQLlSwC6DKwrH-8">
          <mxGeometry width="50" height="50" relative="1" as="geometry">
            <mxPoint x="330" y="-830" as="sourcePoint" />
            <mxPoint x="380" y="-880" as="targetPoint" />
          </mxGeometry>
        </mxCell>
        <mxCell id="QP0DH9ULQLlSwC6DKwrH-29" value="" style="endArrow=classic;html=1;rounded=0;exitX=1;exitY=0.75;exitDx=0;exitDy=0;entryX=0;entryY=0.25;entryDx=0;entryDy=0;" edge="1" parent="1" source="QP0DH9ULQLlSwC6DKwrH-6" target="QP0DH9ULQLlSwC6DKwrH-12">
          <mxGeometry width="50" height="50" relative="1" as="geometry">
            <mxPoint x="330" y="-830" as="sourcePoint" />
            <mxPoint x="460" y="-780" as="targetPoint" />
          </mxGeometry>
        </mxCell>
        <mxCell id="QP0DH9ULQLlSwC6DKwrH-30" value="" style="endArrow=classic;html=1;rounded=0;exitX=0.84;exitY=0.028;exitDx=0;exitDy=0;exitPerimeter=0;entryX=0;entryY=1;entryDx=0;entryDy=0;" edge="1" parent="1" source="QP0DH9ULQLlSwC6DKwrH-8" target="QP0DH9ULQLlSwC6DKwrH-10">
          <mxGeometry width="50" height="50" relative="1" as="geometry">
            <mxPoint x="330" y="-810" as="sourcePoint" />
            <mxPoint x="380" y="-860" as="targetPoint" />
          </mxGeometry>
        </mxCell>
        <mxCell id="QP0DH9ULQLlSwC6DKwrH-31" value="" style="endArrow=classic;html=1;rounded=0;exitX=1;exitY=0;exitDx=0;exitDy=0;entryX=0;entryY=0.5;entryDx=0;entryDy=0;" edge="1" parent="1" source="QP0DH9ULQLlSwC6DKwrH-8" target="QP0DH9ULQLlSwC6DKwrH-12">
          <mxGeometry width="50" height="50" relative="1" as="geometry">
            <mxPoint x="330" y="-810" as="sourcePoint" />
            <mxPoint x="380" y="-860" as="targetPoint" />
          </mxGeometry>
        </mxCell>
        <mxCell id="QP0DH9ULQLlSwC6DKwrH-32" value="" style="endArrow=classic;html=1;rounded=0;exitX=1;exitY=0.5;exitDx=0;exitDy=0;entryX=0;entryY=0.5;entryDx=0;entryDy=0;" edge="1" parent="1" source="QP0DH9ULQLlSwC6DKwrH-8" target="QP0DH9ULQLlSwC6DKwrH-13">
          <mxGeometry width="50" height="50" relative="1" as="geometry">
            <mxPoint x="330" y="-810" as="sourcePoint" />
            <mxPoint x="380" y="-860" as="targetPoint" />
          </mxGeometry>
        </mxCell>
        <mxCell id="QP0DH9ULQLlSwC6DKwrH-33" value="" style="endArrow=classic;html=1;rounded=0;entryX=0;entryY=0.25;entryDx=0;entryDy=0;exitX=1;exitY=1;exitDx=0;exitDy=0;" edge="1" parent="1" source="QP0DH9ULQLlSwC6DKwrH-8" target="QP0DH9ULQLlSwC6DKwrH-14">
          <mxGeometry width="50" height="50" relative="1" as="geometry">
            <mxPoint x="330" y="-640" as="sourcePoint" />
            <mxPoint x="380" y="-690" as="targetPoint" />
          </mxGeometry>
        </mxCell>
        <mxCell id="QP0DH9ULQLlSwC6DKwrH-34" value="" style="endArrow=classic;html=1;rounded=0;entryX=0;entryY=0.5;entryDx=0;entryDy=0;exitX=0.5;exitY=1;exitDx=0;exitDy=0;" edge="1" parent="1" source="QP0DH9ULQLlSwC6DKwrH-8" target="QP0DH9ULQLlSwC6DKwrH-15">
          <mxGeometry width="50" height="50" relative="1" as="geometry">
            <mxPoint x="330" y="-640" as="sourcePoint" />
            <mxPoint x="380" y="-690" as="targetPoint" />
          </mxGeometry>
        </mxCell>
        <mxCell id="QP0DH9ULQLlSwC6DKwrH-35" value="" style="endArrow=classic;html=1;rounded=0;entryX=0;entryY=0.5;entryDx=0;entryDy=0;exitX=1;exitY=0.5;exitDx=0;exitDy=0;" edge="1" parent="1" source="QP0DH9ULQLlSwC6DKwrH-12" target="QP0DH9ULQLlSwC6DKwrH-18">
          <mxGeometry width="50" height="50" relative="1" as="geometry">
            <mxPoint x="530" y="-710" as="sourcePoint" />
            <mxPoint x="580" y="-760" as="targetPoint" />
          </mxGeometry>
        </mxCell>
        <mxCell id="QP0DH9ULQLlSwC6DKwrH-36" value="" style="endArrow=classic;html=1;rounded=0;entryX=0;entryY=0.5;entryDx=0;entryDy=0;exitX=1;exitY=0.5;exitDx=0;exitDy=0;" edge="1" parent="1" source="QP0DH9ULQLlSwC6DKwrH-14" target="QP0DH9ULQLlSwC6DKwrH-19">
          <mxGeometry width="50" height="50" relative="1" as="geometry">
            <mxPoint x="530" y="-710" as="sourcePoint" />
            <mxPoint x="580" y="-760" as="targetPoint" />
          </mxGeometry>
        </mxCell>
        <mxCell id="QP0DH9ULQLlSwC6DKwrH-38" value="" style="endArrow=classic;html=1;rounded=0;entryX=0;entryY=0.5;entryDx=0;entryDy=0;exitX=1;exitY=0.25;exitDx=0;exitDy=0;" edge="1" parent="1" source="QP0DH9ULQLlSwC6DKwrH-9" target="QP0DH9ULQLlSwC6DKwrH-11">
          <mxGeometry width="50" height="50" relative="1" as="geometry">
            <mxPoint x="530" y="-710" as="sourcePoint" />
            <mxPoint x="580" y="-760" as="targetPoint" />
          </mxGeometry>
        </mxCell>
        <mxCell id="QP0DH9ULQLlSwC6DKwrH-39" value="" style="endArrow=classic;html=1;rounded=0;entryX=0;entryY=0.75;entryDx=0;entryDy=0;exitX=0.75;exitY=0;exitDx=0;exitDy=0;" edge="1" parent="1" source="QP0DH9ULQLlSwC6DKwrH-10" target="QP0DH9ULQLlSwC6DKwrH-11">
          <mxGeometry width="50" height="50" relative="1" as="geometry">
            <mxPoint x="530" y="-730" as="sourcePoint" />
            <mxPoint x="580" y="-780" as="targetPoint" />
          </mxGeometry>
        </mxCell>
        <mxCell id="QP0DH9ULQLlSwC6DKwrH-40" value="" style="endArrow=classic;html=1;rounded=0;entryX=0;entryY=0.25;entryDx=0;entryDy=0;exitX=1;exitY=0;exitDx=0;exitDy=0;" edge="1" parent="1" source="QP0DH9ULQLlSwC6DKwrH-10" target="QP0DH9ULQLlSwC6DKwrH-16">
          <mxGeometry width="50" height="50" relative="1" as="geometry">
            <mxPoint x="530" y="-730" as="sourcePoint" />
            <mxPoint x="580" y="-780" as="targetPoint" />
          </mxGeometry>
        </mxCell>
        <mxCell id="QP0DH9ULQLlSwC6DKwrH-41" value="" style="endArrow=classic;html=1;rounded=0;entryX=0;entryY=0.25;entryDx=0;entryDy=0;exitX=1;exitY=0.5;exitDx=0;exitDy=0;" edge="1" parent="1" source="QP0DH9ULQLlSwC6DKwrH-10" target="QP0DH9ULQLlSwC6DKwrH-17">
          <mxGeometry width="50" height="50" relative="1" as="geometry">
            <mxPoint x="530" y="-730" as="sourcePoint" />
            <mxPoint x="580" y="-780" as="targetPoint" />
          </mxGeometry>
        </mxCell>
        <mxCell id="QP0DH9ULQLlSwC6DKwrH-42" value="" style="endArrow=classic;html=1;rounded=0;entryX=0;entryY=0.5;entryDx=0;entryDy=0;exitX=1;exitY=0.25;exitDx=0;exitDy=0;" edge="1" parent="1" source="QP0DH9ULQLlSwC6DKwrH-11" target="QP0DH9ULQLlSwC6DKwrH-22">
          <mxGeometry width="50" height="50" relative="1" as="geometry">
            <mxPoint x="530" y="-730" as="sourcePoint" />
            <mxPoint x="580" y="-780" as="targetPoint" />
          </mxGeometry>
        </mxCell>
        <mxCell id="QP0DH9ULQLlSwC6DKwrH-43" value="" style="endArrow=classic;html=1;rounded=0;entryX=0;entryY=0.25;entryDx=0;entryDy=0;exitX=1;exitY=0.75;exitDx=0;exitDy=0;" edge="1" parent="1" source="QP0DH9ULQLlSwC6DKwrH-11" target="QP0DH9ULQLlSwC6DKwrH-23">
          <mxGeometry width="50" height="50" relative="1" as="geometry">
            <mxPoint x="530" y="-870" as="sourcePoint" />
            <mxPoint x="580" y="-920" as="targetPoint" />
          </mxGeometry>
        </mxCell>
      </root>
    </mxGraphModel>
  </diagram>
</mxfile>
